<svg xmlns="http://www.w3.org/2000/svg" xmlns:xlink="http://www.w3.org/1999/xlink" viewBox="0,0,256,256" width="64px" height="64px" fill-rule="nonzero"><g fill="#fffcfc" fill-rule="nonzero" stroke="none" stroke-width="1" stroke-linecap="butt" stroke-linejoin="miter" stroke-miterlimit="10" stroke-dasharray="" stroke-dashoffset="0" font-family="none" font-weight="none" font-size="none" text-anchor="none" style="mix-blend-mode: normal"><g transform="scale(4,4)"><g id="Layer_1"><path d="M25,28.1c-2.2,0.3 -4,2.1 -4,4.4c0,2.5 2,4.5 4.5,4.5c2.5,0 4.5,-2 4.5,-4.5c0,-0.2 0,-0.3 -0.1,-0.5h3.1v-4l-8,0.1z"></path><path d="M11,42h7v-14h-9l1,4v0v6h-8l4,15.9v0.1v0v0h12v6h8v-10v0h-13z"></path><path d="M57,48l2,-8h-4l2,-8v-19.9v-0.1v0h-4l-1,-4h-7.5l-1,-4h-12.5l1,4h-28l2,8l-2,8h37l5,-8h6v0.1l-10,39.9v0v4h16l3,-12z"></path></g></g></g></svg>